<svg xmlns="http://www.w3.org/2000/svg" xmlns:xlink="http://www.w3.org/1999/xlink" id="Layer_1" viewBox="0 0 137.84 46.66" aria-labelledby="site-logo" role="img" class="main-logo"><defs><mask id="mask" x="0" y="-.45" width="137.84" height="47.56" maskUnits="userSpaceOnUse"><g><g><path d="m64.85,5.24c-2.69,0-4.98.84-6.78,2.46V-.45s-4.44,0-4.44,0v30.56h4.44s0-13.91,0-13.91c0-3.88,2.73-6.7,6.48-6.7s5.83,2.32,5.83,6.35v14.25h4.44v-14.64c0-6.12-4.01-10.23-9.98-10.23Z" style="fill:#fff;"></path><path d="m87.56,5.24c-6.51,0-11.62,5.56-11.62,12.65v.09c0,7.21,5.14,12.65,11.96,12.65,5.12,0,8.01-2.41,9.97-4.52l.81-.87-3.21-2.84-.77.83c-1.96,2.11-4.1,3.09-6.71,3.09-3.06,0-6.48-2-7.32-6.35h17.98l.13-1.02c.05-.42.05-.6.05-1.01,0-7.48-4.64-12.7-11.27-12.7Zm-6.87,10.5c.76-3.67,3.46-6.22,6.78-6.22,4.07,0,6.03,3.03,6.59,6.22h-13.38Z" style="fill:#fff;"></path><path d="m114.4,10.07v-4.62s-1.12-.04-1.12-.04c-3.32-.13-6.4,1.28-8.64,3.8v-3.46h-4.44v24.36h4.44v-10.19c0-6.8,4.21-9.85,8.38-9.85h1.38Z" style="fill:#fff;"></path><path d="m125.4,5.24c-7.02,0-12.52,5.58-12.52,12.7v.09c0,7.07,5.46,12.61,12.44,12.61s12.52-5.58,12.52-12.7v-.09c0-7.07-5.46-12.61-12.44-12.61Zm-.09,4.32c4.43,0,7.91,3.68,7.91,8.38v.09c0,4.73-3.36,8.3-7.82,8.3s-7.91-3.68-7.91-8.38v-.09c0-4.73,3.36-8.3,7.82-8.3Z" style="fill:#fff;"></path></g><g><path d="m18.17,38.68l9.46-19.04h-6.6l-6.19,12.53-5.02-9.77L19.45,2.94c.78-1.56,2.08-2.74,3.63-3.39H0v46.66h22.04l-3.87-7.53Z" style="fill:#fff;"></path><path d="m31.05-.45l-6.32,12.51h5c5.29,0,8.74,5.56,6.38,10.3l-11.81,23.86h22.38V-.45h-15.62Z" style="fill:#fff;"></path></g></g></mask><linearGradient id="linear-gradient" x1="12.5" y1="-17.66" x2="125.34" y2="64.32" gradientUnits="userSpaceOnUse"><stop offset="0" stop-color="#67308f"></stop><stop offset=".16" stop-color="#6b2e8e"></stop><stop offset=".33" stop-color="#792b8e"></stop><stop offset=".52" stop-color="#90248e"></stop><stop offset=".72" stop-color="#b01c8d"></stop><stop offset=".92" stop-color="#d9118c"></stop><stop offset="1" stop-color="#eb0d8c"></stop></linearGradient></defs><g style="mask:url(#mask);"><rect y="-.45" width="137.84" height="47.56" style="fill:url(#linear-gradient);"></rect></g><g><path d="m53.62,40.67v-.04c0-2.96,2.48-5.53,5.65-5.53,2.09,0,3.39.91,4.44,1.95l-.76.75c-.96-.93-2.04-1.74-3.7-1.74-2.52,0-4.48,2.01-4.48,4.54v.04c0,2.55,2.02,4.58,4.57,4.58,1.57,0,2.78-.77,3.72-1.76l.74.62c-1.13,1.22-2.48,2.09-4.52,2.09-3.2,0-5.65-2.53-5.65-5.49Z" style="fill:#fff;"></path><path d="m66.89,35.35h1.07v2.54c.69-1.78,2.72-2.79,4.91-2.71v1.12h-.11c-2.57,0-4.81,1.84-4.81,5.28v4.33h-1.07v-10.56Z" style="fill:#fff;"></path><path d="m74.42,40.65v-.04c0-3.07,2.26-5.51,5.26-5.51,3.11,0,5.09,2.4,5.09,5.53,0,.19,0,.25-.02.41h-9.2c.2,2.63,2.17,4.16,4.35,4.16,1.72,0,2.89-.72,3.81-1.66l.74.62c-1.13,1.16-2.46,1.99-4.59,1.99-2.91,0-5.44-2.22-5.44-5.51Zm9.2-.52c-.15-2.13-1.44-4.1-3.98-4.1-2.2,0-3.89,1.76-4.09,4.1h8.07Z" style="fill:#fff;"></path><path d="m87.38,42.85v-.04c0-2.2,1.98-3.44,4.85-3.44,1.54,0,2.61.19,3.67.46v-.46c0-2.13-1.37-3.23-3.65-3.23-1.35,0-2.46.35-3.48.85l-.39-.89c1.22-.54,2.41-.91,3.94-.91s2.7.39,3.5,1.16c.74.7,1.13,1.68,1.13,2.98v6.59h-1.04v-1.76c-.76,1.01-2.13,2.01-4.24,2.01s-4.28-1.12-4.28-3.31Zm8.55-.89v-1.2c-.93-.23-2.17-.48-3.76-.48-2.35,0-3.65.99-3.65,2.46v.04c0,1.53,1.52,2.42,3.22,2.42,2.26,0,4.2-1.33,4.2-3.25Z" style="fill:#fff;"></path><path d="m101.02,43.2v-6.92h-1.61v-.93h1.61v-2.76h1.07v2.76h3.89v.93h-3.89v6.81c0,1.51.94,2.05,2.22,2.05.54,0,1-.1,1.63-.37v.95c-.57.25-1.11.37-1.8.37-1.72,0-3.11-.89-3.11-2.9Z" style="fill:#fff;"></path><path d="m109.31,32.6h1.33v1.39h-1.33v-1.39Zm.13,2.75h1.07v10.56h-1.07v-10.56Z" style="fill:#fff;"></path><path d="m113.73,35.35h1.24l4.2,9.42,4.24-9.42h1.2l-4.98,10.65h-.91l-4.98-10.65Z" style="fill:#fff;"></path><path d="m126.25,40.65v-.04c0-3.07,2.26-5.51,5.26-5.51s5.09,2.4,5.09,5.53c0,.19,0,.25-.02.41h-9.2c.2,2.63,2.17,4.16,4.35,4.16,1.72,0,2.89-.72,3.81-1.66l.74.62c-1.13,1.16-2.46,1.99-4.59,1.99-2.91,0-5.44-2.22-5.44-5.51Zm9.2-.52c-.15-2.13-1.44-4.1-3.98-4.1-2.2,0-3.89,1.76-4.09,4.1h8.07Z" style="fill:#fff;"></path></g><title id="site-logo">Hero Creative Logo</title></svg>